{
    "asset" : {
        "generator" : "Khronos glTF Blender I/O v3.3.32",
        "version" : "2.0"
    },
    "scene" : 0,
    "scenes" : [
        {
            "name" : "Scene",
            "nodes" : [
                0,
                1,
                2,
                3,
                4,
                5,
                6,
                7,
                8,
                9,
                10,
                11,
                12
            ]
        }
    ],
    "nodes" : [
        {
            "name" : "Camera.001",
            "rotation" : [
                0.483536034822464,
                0.33687159419059753,
                -0.20870360732078552,
                0.7804827094078064
            ],
            "translation" : [
                7.481131553649902,
                5.34366512298584,
                6.5076398849487305
            ]
        },
        {
            "name" : "Lamp",
            "rotation" : [
                0.16907551884651184,
                0.7558805346488953,
                -0.2721710801124573,
                0.570947527885437
            ],
            "translation" : [
                0,
                1.600000023841858,
                0
            ]
        },
        {
            "name" : "Light.001",
            "rotation" : [
                0.16907577216625214,
                0.7558804154396057,
                -0.27217140793800354,
                0.5709474682807922
            ],
            "translation" : [
                4.076245307922363,
                5.903861999511719,
                -1.0054539442062378
            ]
        },
        {
            "name" : "Camera.002",
            "rotation" : [
                0.483536034822464,
                0.33687159419059753,
                -0.20870360732078552,
                0.7804827094078064
            ],
            "translation" : [
                7.358891487121582,
                4.958309173583984,
                6.925790786743164
            ]
        },
        {
            "name" : "Camera.003",
            "rotation" : [
                0.483536034822464,
                0.33687159419059753,
                -0.20870360732078552,
                0.7804827094078064
            ],
            "translation" : [
                7.481131553649902,
                5.34366512298584,
                6.5076398849487305
            ]
        },
        {
            "name" : "Lamp.001",
            "rotation" : [
                0.16907551884651184,
                0.7558805346488953,
                -0.2721710801124573,
                0.570947527885437
            ],
            "translation" : [
                0,
                1.600000023841858,
                0
            ]
        },
        {
            "name" : "Light.002",
            "rotation" : [
                0.16907577216625214,
                0.7558804154396057,
                -0.27217140793800354,
                0.5709474682807922
            ],
            "translation" : [
                4.076245307922363,
                5.903861999511719,
                -1.0054539442062378
            ]
        },
        {
            "name" : "Camera.004",
            "rotation" : [
                0.483536034822464,
                0.33687159419059753,
                -0.20870360732078552,
                0.7804827094078064
            ],
            "translation" : [
                7.358891487121582,
                4.958309173583984,
                6.925790786743164
            ]
        },
        {
            "name" : "Camera.005",
            "rotation" : [
                0.483536034822464,
                0.33687159419059753,
                -0.20870360732078552,
                0.7804827094078064
            ],
            "translation" : [
                7.481131553649902,
                5.34366512298584,
                6.5076398849487305
            ]
        },
        {
            "name" : "Lamp.002",
            "rotation" : [
                0.16907551884651184,
                0.7558805346488953,
                -0.2721710801124573,
                0.570947527885437
            ],
            "translation" : [
                0,
                1.600000023841858,
                0
            ]
        },
        {
            "name" : "Light.003",
            "rotation" : [
                0.16907577216625214,
                0.7558804154396057,
                -0.27217140793800354,
                0.5709474682807922
            ],
            "translation" : [
                4.076245307922363,
                5.903861999511719,
                -1.0054539442062378
            ]
        },
        {
            "name" : "Camera.006",
            "rotation" : [
                0.483536034822464,
                0.33687159419059753,
                -0.20870360732078552,
                0.7804827094078064
            ],
            "translation" : [
                7.358891487121582,
                4.958309173583984,
                6.925790786743164
            ]
        },
        {
            "mesh" : 0,
            "name" : "Curve",
            "rotation" : [
                0.710511326789856,
                0,
                0,
                0.7036858201026917
            ],
            "scale" : [
                250.92562866210938,
                250.92555236816406,
                250.92555236816406
            ]
        }
    ],
    "materials" : [
        {
            "doubleSided" : true,
            "name" : "Material",
            "pbrMetallicRoughness" : {
                "baseColorFactor" : [
                    0.8000000715255737,
                    0.25565120577812195,
                    0.00028846377972513437,
                    1
                ],
                "metallicFactor" : 0,
                "roughnessFactor" : 0.5
            }
        }
    ],
    "meshes" : [
        {
            "name" : "Curve",
            "primitives" : [
                {
                    "attributes" : {
                        "POSITION" : 0,
                        "NORMAL" : 1,
                        "TEXCOORD_0" : 2
                    },
                    "indices" : 3,
                    "material" : 0
                }
            ]
        }
    ],
    "accessors" : [
        {
            "bufferView" : 0,
            "componentType" : 5126,
            "count" : 1106422,
            "max" : [
                0.18431736528873444,
                0.04684370756149292,
                0
            ],
            "min" : [
                0,
                0,
                -0.2593212127685547
            ],
            "type" : "VEC3"
        },
        {
            "bufferView" : 1,
            "componentType" : 5126,
            "count" : 1106422,
            "type" : "VEC3"
        },
        {
            "bufferView" : 2,
            "componentType" : 5126,
            "count" : 1106422,
            "type" : "VEC2"
        },
        {
            "bufferView" : 3,
            "componentType" : 5125,
            "count" : 1759896,
            "type" : "SCALAR"
        }
    ],
    "bufferViews" : [
        {
            "buffer" : 0,
            "byteLength" : 13277064,
            "byteOffset" : 0,
            "target" : 34962
        },
        {
            "buffer" : 0,
            "byteLength" : 13277064,
            "byteOffset" : 13277064,
            "target" : 34962
        },
        {
            "buffer" : 0,
            "byteLength" : 8851376,
            "byteOffset" : 26554128,
            "target" : 34962
        },
        {
            "buffer" : 0,
            "byteLength" : 7039584,
            "byteOffset" : 35405504,
            "target" : 34963
        }
    ],
    "buffers" : [
        {
            "byteLength" : 42445088,
            "uri" : "Teste_cartaz.bin"
        }
    ]
}
