{
    "asset" : {
        "generator" : "Khronos glTF Blender I/O v3.3.32",
        "version" : "2.0"
    },
    "scene" : 0,
    "scenes" : [
        {
            "name" : "Scene",
            "nodes" : [
                0
            ]
        }
    ],
    "nodes" : [
        {
            "mesh" : 0,
            "name" : "Curve",
            "rotation" : [
                0.7078633308410645,
                -0.01255410723388195,
                0.006068957969546318,
                0.7062118053436279
            ],
            "scale" : [
                3,
                1,
                3.000000238418579
            ],
            "translation" : [
                0.013859625905752182,
                -0.017474336549639702,
                0.00413547083735466
            ]
        }
    ],
    "materials" : [
        {
            "doubleSided" : true,
            "name" : "SVGMat.001",
            "pbrMetallicRoughness" : {
                "baseColorFactor" : [
                    0,
                    0,
                    0,
                    1
                ],
                "metallicFactor" : 0,
                "roughnessFactor" : 0.4000000059604645
            }
        }
    ],
    "meshes" : [
        {
            "name" : "Curve",
            "primitives" : [
                {
                    "attributes" : {
                        "POSITION" : 0,
                        "NORMAL" : 1,
                        "TEXCOORD_0" : 2
                    },
                    "indices" : 3,
                    "material" : 0
                }
            ]
        }
    ],
    "accessors" : [
        {
            "bufferView" : 0,
            "componentType" : 5126,
            "count" : 1286405,
            "max" : [
                0.18431736528873444,
                0.21669815480709076,
                0
            ],
            "min" : [
                0,
                0,
                -0.2593212127685547
            ],
            "type" : "VEC3"
        },
        {
            "bufferView" : 1,
            "componentType" : 5126,
            "count" : 1286405,
            "type" : "VEC3"
        },
        {
            "bufferView" : 2,
            "componentType" : 5126,
            "count" : 1286405,
            "type" : "VEC2"
        },
        {
            "bufferView" : 3,
            "componentType" : 5125,
            "count" : 1759896,
            "type" : "SCALAR"
        }
    ],
    "bufferViews" : [
        {
            "buffer" : 0,
            "byteLength" : 15436860,
            "byteOffset" : 0,
            "target" : 34962
        },
        {
            "buffer" : 0,
            "byteLength" : 15436860,
            "byteOffset" : 15436860,
            "target" : 34962
        },
        {
            "buffer" : 0,
            "byteLength" : 10291240,
            "byteOffset" : 30873720,
            "target" : 34962
        },
        {
            "buffer" : 0,
            "byteLength" : 7039584,
            "byteOffset" : 41164960,
            "target" : 34963
        }
    ],
    "buffers" : [
        {
            "byteLength" : 48204544,
            "uri" : "Teste_cartaz.bin"
        }
    ]
}
